<?xml version="1.0" encoding="UTF-8"?>
<svg version="1.1" xmlns="http://www.w3.org/2000/svg" width="500" height="500">
<path d="M0 0 C1.63388672 0.32677734 1.63388672 0.32677734 3.30078125 0.66015625 C31.7080296 6.76888298 63.04389226 23.6716715 80 48 C80 48.66 80 49.32 80 50 C80.66 50 81.32 50 82 50 C83.17333984 51.44946289 83.17333984 51.44946289 84.4609375 53.47265625 C85.16863281 54.57577148 85.16863281 54.57577148 85.890625 55.70117188 C86.62539063 56.8700293 86.62539063 56.8700293 87.375 58.0625 C88.09816406 59.19075195 88.09816406 59.19075195 88.8359375 60.34179688 C93.32171062 67.38129138 97.38187511 74.39300578 100.5625 82.125 C100.86623535 82.86057129 101.1699707 83.59614258 101.48291016 84.35400391 C104.06686694 90.80203006 105.63773336 97.18866682 107 104 C107.33 104.99 107.66 105.98 108 107 C108.615601 110.33923931 109.07648218 113.70223326 109.5625 117.0625 C109.70107422 117.96677734 109.83964844 118.87105469 109.98242188 119.80273438 C114.44698643 150.57084181 103.98861918 180.5914805 89 207 C88.34 207 87.68 207 87 207 C86.7525 207.70125 86.505 208.4025 86.25 209.125 C84.24803973 213.72950861 81.61362585 217.53694189 78 221 C77.319375 221.886875 76.63875 222.77375 75.9375 223.6875 C75.298125 224.450625 74.65875 225.21375 74 226 C73.34 226 72.68 226 72 226 C72 226.66 72 227.32 72 228 C71.34 228 70.68 228 70 228 C70 228.66 70 229.32 70 230 C68.26608049 231.60634015 66.461909 233.1375287 64.625 234.625 C63.62726563 235.44226563 62.62953125 236.25953125 61.6015625 237.1015625 C59 239 59 239 57 239 C57 239.66 57 240.32 57 241 C54.86735531 242.64850983 52.74883039 244.14871095 50.5 245.625 C49.8294458 246.0679541 49.1588916 246.5109082 48.46801758 246.96728516 C41.28340462 251.61257371 33.76571566 255.43131758 26 259 C25.11957031 259.40992188 24.23914063 259.81984375 23.33203125 260.2421875 C-1.12590458 270.81194871 -30.30535507 271.88611636 -56 266 C-57.19109375 265.74863281 -58.3821875 265.49726563 -59.609375 265.23828125 C-72.98121019 262.32667197 -72.98121019 262.32667197 -78 260 C-78.33 259.34 -78.66 258.68 -79 258 C-80.216875 257.62875 -81.43375 257.2575 -82.6875 256.875 C-92.38697816 253.82747656 -103.2013834 247.4782159 -111 241 C-111 240.34 -111 239.68 -111 239 C-111.66 239 -112.32 239 -113 239 C-113 238.34 -113 237.68 -113 237 C-113.70769531 236.7834375 -114.41539062 236.566875 -115.14453125 236.34375 C-118.68264321 234.67875614 -121.03527029 232.29296026 -123.6875 229.5 C-124.17283203 229.00113281 -124.65816406 228.50226563 -125.15820312 227.98828125 C-126.44467978 226.66454114 -127.72281878 225.33271084 -129 224 C-129.99 223.01 -129.99 223.01 -131 222 C-134 218.30769231 -134 218.30769231 -134 216 C-134.66 216 -135.32 216 -136 216 C-138.5997532 212.51537038 -140.75168125 208.71837331 -143 205 C-143.59554687 204.03964844 -144.19109375 203.07929688 -144.8046875 202.08984375 C-162.52792738 172.82680546 -167.36859982 139.32900571 -161 106 C-160.80664062 104.95714844 -160.61328125 103.91429687 -160.4140625 102.83984375 C-156.41619127 83.48544364 -146.58980643 63.30473297 -134 48 C-133.34 48 -132.68 48 -132 48 C-132 47.34 -132 46.68 -132 46 C-131.34 46 -130.68 46 -130 46 C-129.7834375 45.45859375 -129.566875 44.9171875 -129.34375 44.359375 C-127.53500003 41.18354656 -125.08276201 38.79271919 -122.5 36.25 C-122.00113281 35.74339844 -121.50226563 35.23679688 -120.98828125 34.71484375 C-117.25341139 31 -117.25341139 31 -115 31 C-115 30.34 -115 29.68 -115 29 C-112.92924872 27.34642197 -110.86245236 25.81830099 -108.6875 24.3125 C-108.05392578 23.86914307 -107.42035156 23.42578613 -106.76757812 22.96899414 C-104.85158301 21.63622216 -102.92726778 20.31640396 -101 19 C-99.95457031 18.28070313 -98.90914063 17.56140625 -97.83203125 16.8203125 C-93.1059764 13.67830086 -89.72231211 11.67370244 -84 11 C-84 10.34 -84 9.68 -84 9 C-83.35933594 8.81824219 -82.71867187 8.63648437 -82.05859375 8.44921875 C-78.0395326 7.28123526 -74.11526056 6.13746665 -70.3125 4.375 C-66.8331138 2.93072648 -63.73431096 2.38105214 -60 2 C-60 1.34 -60 0.68 -60 0 C-59.113125 0.04125 -58.22625 0.0825 -57.3125 0.125 C-53.98116399 0.13806406 -50.9541914 -0.36802428 -47.6875 -1 C-32.28262185 -3.50195237 -15.28019092 -3.18254947 0 0 Z M-99 23 C-99.75458496 23.4444043 -100.50916992 23.88880859 -101.28662109 24.34667969 C-102.02090332 24.78657227 -102.75518555 25.22646484 -103.51171875 25.6796875 C-104.18033936 26.07655762 -104.84895996 26.47342773 -105.5378418 26.88232422 C-106.020354 27.25115723 -106.50286621 27.61999023 -107 28 C-107 28.66 -107 29.32 -107 30 C-107.56460938 30.24878906 -108.12921875 30.49757813 -108.7109375 30.75390625 C-117.28355511 35.4205701 -124.90857095 44.41811491 -131 52 C-131 52.66 -131 53.32 -131 54 C-131.66 54 -132.32 54 -133 54 C-134.66644821 56.24067726 -136.18997102 58.46320802 -137.6875 60.8125 C-138.11611328 61.45509766 -138.54472656 62.09769531 -138.98632812 62.75976562 C-140.07675699 64.45423239 -141.04715165 66.22451901 -142 68 C-141.67 68.99 -141.34 69.98 -141 71 C-142.485 71.495 -142.485 71.495 -144 72 C-145.16686291 73.68875202 -145.16686291 73.68875202 -146.0625 75.75 C-146.39765625 76.46929687 -146.7328125 77.18859375 -147.078125 77.9296875 C-147.38234375 78.61289063 -147.6865625 79.29609375 -148 80 C-148.433125 80.94875 -148.86625 81.8975 -149.3125 82.875 C-150.28118909 85.02163996 -150.28118909 85.02163996 -149 87 C-149.66 87 -150.32 87 -151 87 C-155.77265392 101.7596236 -155.77265392 101.7596236 -157.89453125 117.0390625 C-158 119 -158 119 -159 122 C-159.77029785 133.90789852 -159.6672393 146.34983042 -157 158 C-156.75805908 159.06613525 -156.75805908 159.06613525 -156.51123047 160.15380859 C-152.55757581 177.21564803 -145.80550719 191.93279881 -137 207 C-136.34 207 -135.68 207 -135 207 C-135 207.99 -135 208.98 -135 210 C-134.34 210 -133.68 210 -133 210 C-132.75121094 210.55429687 -132.50242188 211.10859375 -132.24609375 211.6796875 C-125.60431553 224.04713659 -112.96718778 234.92741544 -101 242 C-100.34 242 -99.68 242 -99 242 C-99 242.66 -99 243.32 -99 244 C-98.01 244 -97.02 244 -96 244 C-96 244.66 -96 245.32 -96 246 C-91.06399028 248.35688616 -86.11864967 250.69161603 -81.15771484 252.99560547 C-79.37873885 253.82370088 -77.60469479 254.66238287 -75.83203125 255.50390625 C-63.27278824 261.1546799 -48.52324531 264.12008169 -34.78125 264.1328125 C-34.11967896 264.13376923 -33.45810791 264.13472595 -32.77648926 264.13571167 C-31.388264 264.13638724 -30.00003546 264.13457684 -28.61181641 264.13037109 C-26.50546062 264.12501389 -24.39931802 264.13033736 -22.29296875 264.13671875 C-20.93489537 264.13605786 -19.57682212 264.13477647 -18.21875 264.1328125 C-17.00123047 264.13168457 -15.78371094 264.13055664 -14.52929688 264.12939453 C10.0902633 263.22676816 35.19302431 252.68472387 54 237 C55.47793627 235.89418697 56.95713691 234.79006209 58.4375 233.6875 C63.70203917 229.59492538 68.60537258 225.01849937 73 220 C73 219.34 73 218.68 73 218 C73.66 218 74.32 218 75 218 C75.93324464 216.65197997 76.85525183 215.29510611 77.7265625 213.90625 C79.21454419 211.67884183 80.87460469 209.64210097 82.5625 207.5625 C85.46735658 203.8743806 87.25023206 200.37441985 89 196 C89.77221276 194.77914251 90.56563983 193.57155408 91.375 192.375 C94.84661452 186.95386021 96.90261021 181.058362 99 175 C99.36222656 173.99839844 99.72445313 172.99679687 100.09765625 171.96484375 C105.52096471 155.32374137 107.313495 136.32431137 105 119 C104.91476074 118.30036133 104.82952148 117.60072266 104.74169922 116.87988281 C102.09296948 95.68070194 94.23799061 77.67063137 83.31640625 59.4453125 C82.72194702 58.45168701 82.72194702 58.45168701 82.11547852 57.43798828 C81.56331665 56.72618408 81.56331665 56.72618408 81 56 C80.34 56 79.68 56 79 56 C78.79375 55.31550781 78.5875 54.63101563 78.375 53.92578125 C76.54088961 50.02308613 73.94259574 47.30012781 71 44.1875 C70.18015625 43.2912793 70.18015625 43.2912793 69.34375 42.37695312 C67.94185411 40.87369467 66.47529823 39.43129075 65 38 C64.34 38 63.68 38 63 38 C63 37.34 63 36.68 63 36 C60.82735345 33.95543941 60.82735345 33.95543941 58.125 31.875 C57.22007812 31.15054688 56.31515625 30.42609375 55.3828125 29.6796875 C53.21344189 27.80794766 53.21344189 27.80794766 51 28 C51 27.34 51 26.68 51 26 C49.43822754 24.77016071 49.43822754 24.77016071 47.37109375 23.609375 C46.59048584 23.14982422 45.80987793 22.69027344 45.00561523 22.21679688 C44.15813721 21.73275391 43.31065918 21.24871094 42.4375 20.75 C41.57648682 20.25564453 40.71547363 19.76128906 39.82836914 19.25195312 C32.43221993 15.0892688 25.01843405 11.78112552 17 9 C16.13503906 8.69707031 15.27007812 8.39414063 14.37890625 8.08203125 C-24.14222066 -4.37882589 -64.84607987 2.10095483 -99 23 Z " fill="#646464" transform="translate(277,114)"/>
<path d="M0 0 C-3.23797626 13.22173641 -3.23797626 13.22173641 -9 18 C-9.598125 18.61875 -10.19625 19.2375 -10.8125 19.875 C-14.31291063 21.67521118 -17.18813543 20.69884184 -21 20 C-21 20.99 -21 21.98 -21 23 C-20.3709375 23.02578125 -19.741875 23.0515625 -19.09375 23.078125 C-9.89456448 23.68770958 -3.86726731 26.38952321 2.4609375 33.13671875 C8.68537578 40.67239656 9.76088559 48.46356727 9 58 C8.21749263 61.42119503 7.20115167 64.70398262 6 68 C5.34 68 4.68 68 4 68 C3.75378906 68.75023437 3.50757813 69.50046875 3.25390625 70.2734375 C0.59822505 76.04809631 -5.55888312 79.72632764 -11.375 81.9375 C-18.71896189 83.99023935 -25.53070087 83.59696315 -32.75 81.3125 C-36.33762676 80.21372542 -38.40979055 79.68240525 -41.875 81.25 C-42.90625 81.8275 -43.9375 82.405 -45 83 C-47.9375 83.6875 -47.9375 83.6875 -50 84 C-51 82 -51 82 -50.40625 80.01171875 C-50.1071875 79.24472656 -49.808125 78.47773438 -49.5 77.6875 C-47.18145295 71.01901835 -49.18347948 67.33717116 -52 61 C-54.15676915 54.52969256 -53.77182695 47.15828194 -51.04296875 40.90625 C-46.44969204 32.51104762 -40.49137741 26.29319404 -31.19140625 23.4921875 C-28.41548324 22.86871816 -25.83155924 22.78218775 -23 23 C-23.33 22.34 -23.66 21.68 -24 21 C-25.98 21 -27.96 21 -30 21 C-30 20.34 -30 19.68 -30 19 C-30.598125 18.7525 -31.19625 18.505 -31.8125 18.25 C-36.13044089 15.78260521 -38.09733674 11.47125867 -40 7 C-39.67 6.01 -39.34 5.02 -39 4 C-32.09401601 3.50671543 -27.71090655 6.47267536 -22 10 C-21.67 9.278125 -21.34 8.55625 -21 7.8125 C-15.53783842 0.13133527 -8.97497863 -0.74241551 0 0 Z M-29 25 C-29 27.97 -29 30.94 -29 34 C-28.67 34 -28.34 34 -28 34 C-28 31.03 -28 28.06 -28 25 C-28.33 25 -28.66 25 -29 25 Z M-16 27 C-15 31 -15 31 -15 31 Z M-26 34 C-26 34.33 -26 34.66 -26 35 C-23.36 35 -20.72 35 -18 35 C-18 34.67 -18 34.34 -18 34 C-20.64 34 -23.28 34 -26 34 Z M-30 38 C-29 41 -29 41 -29 41 Z M-15 38 C-14 40 -14 40 -14 40 Z M-23 50 C-23.33 50.99 -23.66 51.98 -24 53 C-22.515 53.99 -22.515 53.99 -21 55 C-20.34 54.01 -19.68 53.02 -19 52 C-19.66 52 -20.32 52 -21 52 C-21 51.34 -21 50.68 -21 50 C-21.66 50 -22.32 50 -23 50 Z M-35 51 C-34 53 -34 53 -34 53 Z M-22 60 C-21 64 -21 64 -21 64 Z M-26 67 C-23.03 67 -20.06 67 -17 67 C-21.5 64.36486891 -21.5 64.36486891 -26 67 Z " fill="#656666" transform="translate(295,197)"/>
<path d="M0 0 C8.91 -0.0928125 8.91 -0.0928125 18 -0.1875 C19.85882813 -0.21481201 21.71765625 -0.24212402 23.6328125 -0.27026367 C25.13020176 -0.27903744 26.62759825 -0.28667926 28.125 -0.29296875 C29.26195312 -0.3159906 29.26195312 -0.3159906 30.421875 -0.33947754 C36.60075677 -0.34246347 41.89761504 0.87000436 47.09375 4.4375 C51.04740607 8.83045118 51.84252548 12.52064877 51.54296875 18.3984375 C50.70361062 22.42011026 48.98266668 24.24103332 46 27 C46.5053125 27.42667969 47.010625 27.85335937 47.53125 28.29296875 C51.84516077 32.44425193 53.56762706 35.50364383 53.8125 41.5625 C53.50773231 46.6204715 52.7898931 50.11945687 48.95359802 53.57365417 C43.00899852 57.91387902 35.93267534 58.43415341 28.80859375 58.29296875 C27.70167175 58.28843689 27.70167175 58.28843689 26.5723877 58.28381348 C23.86061268 58.26831921 21.14903971 58.22643811 18.4375 58.1875 C12.353125 58.125625 6.26875 58.06375 0 58 C0 38.86 0 19.72 0 0 Z M16 12 C16 15.63 16 19.26 16 23 C22.1764475 23.16921774 27.18160236 23.10452681 33 21 C34.35618499 19.87465895 34.35618499 19.87465895 34.0625 16.9375 C34.041875 15.968125 34.02125 14.99875 34 14 C30.29583874 11.62409858 27.07015427 11.79499714 22.75 11.875 C21.48671875 11.89304688 20.2234375 11.91109375 18.921875 11.9296875 C17.95765625 11.95289063 16.9934375 11.97609375 16 12 Z M16 34 C16 37.96 16 41.92 16 46 C18.75059381 46.08107646 21.49879021 46.14052813 24.25 46.1875 C25.02730469 46.21263672 25.80460937 46.23777344 26.60546875 46.26367188 C31.30140592 46.34061028 31.30140592 46.34061028 35.546875 44.48828125 C36.26617187 43.75158203 36.26617187 43.75158203 37 43 C36.67 40.69 36.34 38.38 36 36 C31.72115394 33.8896565 27.86135858 33.75871261 23.1875 33.875 C22.49462891 33.88402344 21.80175781 33.89304688 21.08789062 33.90234375 C19.39177605 33.92573843 17.69584129 33.96160359 16 34 Z " fill="#4570A3" transform="translate(136,222)"/>
<path d="M0 0 C1.16692383 -0.0309375 1.16692383 -0.0309375 2.35742188 -0.0625 C11.15169354 -0.12117738 17.55797244 2.73609995 24.3125 8.25 C24.8075 9.735 24.8075 9.735 25.3125 11.25 C22.14297153 14.51008643 18.91312011 17.47237877 15.3125 20.25 C14.590625 19.63125 13.86875 19.0125 13.125 18.375 C8.09415071 14.57391387 3.6113039 13.46884912 -2.6875 14.25 C-7.5524903 15.9670554 -11.19603405 18.68396678 -13.6875 23.25 C-15.33026681 28.69229494 -14.90852995 33.34849075 -12.640625 38.5234375 C-10.98914051 41.51506104 -9.23984239 43.7197617 -5.94921875 44.84375 C-3.08019128 45.35908481 -0.35085852 45.34416694 2.5625 45.3125 C3.64015625 45.30347656 4.7178125 45.29445313 5.828125 45.28515625 C6.64796875 45.27355469 7.4678125 45.26195312 8.3125 45.25 C8.30089844 44.10660156 8.28929687 42.96320313 8.27734375 41.78515625 C8.26796712 40.29427246 8.25886679 38.80338691 8.25 37.3125 C8.24162109 36.55775391 8.23324219 35.80300781 8.22460938 35.02539062 C8.21597559 33.10005687 8.26025667 31.17464419 8.3125 29.25 C9.3125 28.25 9.3125 28.25 12.4375 28.1171875 C13.71625 28.11976563 14.995 28.12234375 16.3125 28.125 C17.59125 28.12242187 18.87 28.11984375 20.1875 28.1171875 C23.3125 28.25 23.3125 28.25 24.3125 29.25 C24.39976223 31.03071246 24.41949041 32.8148314 24.41015625 34.59765625 C24.40693359 35.67724609 24.40371094 36.75683594 24.40039062 37.86914062 C24.38782227 39.57360352 24.38782227 39.57360352 24.375 41.3125 C24.37048828 42.45267578 24.36597656 43.59285156 24.36132812 44.76757812 C24.34949747 47.59510351 24.3330141 50.4225264 24.3125 53.25 C13.45248299 59.63669287 2.95849511 62.23154163 -9.7109375 59.62890625 C-17.81650239 57.0746316 -24.55379647 52.03903499 -29.125 44.8125 C-33.36322239 35.14935294 -33.36041406 26.35833614 -29.74609375 16.44921875 C-25.91260034 8.48517156 -19.66472217 4.49946288 -11.6875 1.25 C-7.78875008 -0.04958331 -4.06417957 0.0262841 0 0 Z " fill="#9B9C9D" transform="translate(339.6875,220.75)"/>
<path d="M0 0 C5.28 0 10.56 0 16 0 C17.33257403 30.34168565 17.33257403 30.34168565 16 45 C25.24 45 34.48 45 44 45 C44 49.29 44 53.58 44 58 C29.48 58 14.96 58 0 58 C0 38.86 0 19.72 0 0 Z " fill="#969899" transform="translate(197,222)"/>
<path d="M0 0 C0.99 0 1.98 0 3 0 C2.85669423 2.0001827 2.71021706 4.00013825 2.5625 6 C2.48128906 7.11375 2.40007812 8.2275 2.31640625 9.375 C2.10160055 11.83598388 1.81912006 14.29180675 1.4765625 16.73828125 C-0.19847453 29.79006935 0.06604031 44.18482891 3 57 C3.16129395 57.71075684 3.32258789 58.42151367 3.48876953 59.15380859 C6.85837851 73.69522213 11.76124747 86.72013554 19.46020508 99.55981445 C22 103.80974209 22 103.80974209 22 106 C22.66 106 23.32 106 24 106 C24 106.99 24 107.98 24 109 C24.66 109 25.32 109 26 109 C27.515625 110.72265625 27.515625 110.72265625 29.25 113.0625 C36.96350566 123.22524251 45.09615124 130.98386143 55.78344727 137.97998047 C57.22218627 138.93857351 58.6159199 139.9640498 60 141 C60 141.66 60 142.32 60 143 C60.99 143 61.98 143 63 143 C63 143.66 63 144.32 63 145 C63.87269531 145.27070313 64.74539062 145.54140625 65.64453125 145.8203125 C68.84934305 146.9470333 71.68567992 148.29423254 74.6875 149.875 C88.08499044 156.63113961 102.19325272 159.96318668 117 162 C117.77730469 162.17402344 118.55460937 162.34804688 119.35546875 162.52734375 C123.3191267 163.23576711 127.29510987 163.36908185 131.3125 163.5625 C132.14845703 163.60568359 132.98441406 163.64886719 133.84570312 163.69335938 C135.89696935 163.79885307 137.9484648 163.89987315 140 164 C140 164.99 140 165.98 140 167 C120.64629068 167.43524084 103.6701226 166.40363764 85.125 160.5 C83.98417969 160.14421875 83.98417969 160.14421875 82.8203125 159.78125 C81 159 81 159 80 157 C78.1746875 156.443125 78.1746875 156.443125 76.3125 155.875 C66.61302184 152.82747656 55.7986166 146.4782159 48 140 C48 139.34 48 138.68 48 138 C47.34 138 46.68 138 46 138 C46 137.34 46 136.68 46 136 C45.29230469 135.7834375 44.58460938 135.566875 43.85546875 135.34375 C40.31735679 133.67875614 37.96472971 131.29296026 35.3125 128.5 C34.82716797 128.00113281 34.34183594 127.50226563 33.84179688 126.98828125 C32.55532022 125.66454114 31.27718122 124.33271084 30 123 C29.01 122.01 29.01 122.01 28 121 C25 117.30769231 25 117.30769231 25 115 C24.34 115 23.68 115 23 115 C20.4002468 111.51537038 18.24831875 107.71837331 16 104 C15.40445313 103.03964844 14.80890625 102.07929688 14.1953125 101.08984375 C-3.10989025 72.5170312 -9.24520307 37.72179949 -2 5 C-1.37198362 3.31838838 -0.71650255 1.64585732 0 0 Z " fill="#6E6E6E" transform="translate(118,215)"/>
<path d="M0 0 C0.33 0 0.66 0 1 0 C5.53726408 30.62653253 -5.09442931 60.73780402 -20 87 C-20.66 87 -21.32 87 -22 87 C-22.37125 88.051875 -22.37125 88.051875 -22.75 89.125 C-24.75196027 93.72950861 -27.38637415 97.53694189 -31 101 C-31.680625 101.886875 -32.36125 102.77375 -33.0625 103.6875 C-33.701875 104.450625 -34.34125 105.21375 -35 106 C-35.66 106 -36.32 106 -37 106 C-37 106.66 -37 107.32 -37 108 C-37.66 108 -38.32 108 -39 108 C-39 108.66 -39 109.32 -39 110 C-40.73391951 111.60634015 -42.538091 113.1375287 -44.375 114.625 C-45.37273437 115.44226563 -46.37046875 116.25953125 -47.3984375 117.1015625 C-50 119 -50 119 -52 119 C-52 119.66 -52 120.32 -52 121 C-54.13264469 122.64850983 -56.25116961 124.14871095 -58.5 125.625 C-59.1705542 126.0679541 -59.8411084 126.5109082 -60.53198242 126.96728516 C-67.71659538 131.61257371 -75.23428434 135.43131758 -83 139 C-83.88042969 139.40992188 -84.76085937 139.81984375 -85.66796875 140.2421875 C-105.58579503 148.84989132 -126.68476981 149.32638162 -148 149 C-148 148.67 -148 148.34 -148 148 C-138.1 147.505 -138.1 147.505 -128 147 C-128 146.67 -128 146.34 -128 146 C-133.94 145.67 -139.88 145.34 -146 145 C-146 144.67 -146 144.34 -146 144 C-145.24904053 143.97494385 -144.49808105 143.9498877 -143.72436523 143.92407227 C-140.29526467 143.80745058 -136.86639447 143.68502583 -133.4375 143.5625 C-132.25607422 143.52318359 -131.07464844 143.48386719 -129.85742188 143.44335938 C-102.59632774 142.45065847 -76.05641666 133.56753671 -55 116 C-53.50158153 114.87289437 -52.00154391 113.7479385 -50.5 112.625 C-42.16056313 106.26454337 -42.16056313 106.26454337 -36 98 C-35.34 98 -34.68 98 -34 98 C-33.9071875 96.9171875 -33.9071875 96.9171875 -33.8125 95.8125 C-32.74238798 92.1082661 -30.80096168 90.60554575 -28 88 C-25.13265477 84.79532003 -23.4218841 81.85686418 -21.83984375 77.86328125 C-20.94139163 75.86997119 -19.84851954 74.185504 -18.625 72.375 C-15.15338548 66.95386021 -13.09738979 61.058362 -11 55 C-10.63777344 53.99839844 -10.27554688 52.99679687 -9.90234375 51.96484375 C-6.00938326 40.01952392 -5.21825639 27.44361886 -4 15 C-3.67 15 -3.34 15 -3 15 C-3 18.3 -3 21.6 -3 25 C-2.01 25 -1.02 25 0 25 C0 16.75 0 8.5 0 0 Z " fill="#696969" transform="translate(386,234)"/>
<path d="M0 0 C0.79921875 0.00902344 1.5984375 0.01804687 2.421875 0.02734375 C3.02515625 0.03894531 3.6284375 0.05054687 4.25 0.0625 C3.59 0.3925 2.93 0.7225 2.25 1.0625 C2.25 1.7225 2.25 2.3825 2.25 3.0625 C3.57 3.3925 4.89 3.7225 6.25 4.0625 C5.69352783 4.14701416 5.13705566 4.23152832 4.5637207 4.31860352 C-18.32653111 7.89220688 -38.88762649 14.14252877 -58.12890625 27.36328125 C-60.75 29.0625 -60.75 29.0625 -62.75 29.0625 C-62.75 29.7225 -62.75 30.3825 -62.75 31.0625 C-64.18067595 32.30799452 -65.67250342 33.48356422 -67.1875 34.625 C-73.75712861 39.76159347 -79.93009657 45.22537398 -84.6875 52.125 C-85.368125 53.094375 -86.04875 54.06375 -86.75 55.0625 C-87.41 55.0625 -88.07 55.0625 -88.75 55.0625 C-89.01554687 55.78050781 -89.28109375 56.49851563 -89.5546875 57.23828125 C-91.16065023 61.03276183 -93.32427044 64.37120426 -95.5078125 67.85546875 C-96.91349364 69.93088549 -96.91349364 69.93088549 -96.75 72.0625 C-97.41 72.701875 -98.07 73.34125 -98.75 74 C-101.09807292 75.94262332 -101.09807292 75.94262332 -100.75 79.0625 C-101.41 79.0625 -102.07 79.0625 -102.75 79.0625 C-103.41 82.0325 -104.07 85.0025 -104.75 88.0625 C-105.41 88.0625 -106.07 88.0625 -106.75 88.0625 C-106.93175781 88.85011719 -107.11351563 89.63773437 -107.30078125 90.44921875 C-108.40625 95.23958333 -109.51171875 100.02994792 -110.6171875 104.8203125 C-111.02324219 106.57988281 -111.02324219 106.57988281 -111.4375 108.375 C-111.875 110.27083333 -112.3125 112.16666667 -112.75 114.0625 C-113.08 114.0625 -113.41 114.0625 -113.75 114.0625 C-113.42 110.4325 -113.09 106.8025 -112.75 103.0625 C-114.235 103.5575 -114.235 103.5575 -115.75 104.0625 C-113.12521343 84.82915017 -102.0274534 63.98752263 -89.75 49.0625 C-89.09 49.0625 -88.43 49.0625 -87.75 49.0625 C-87.75 48.4025 -87.75 47.7425 -87.75 47.0625 C-87.09 47.0625 -86.43 47.0625 -85.75 47.0625 C-85.5334375 46.52109375 -85.316875 45.9796875 -85.09375 45.421875 C-83.28500003 42.24604656 -80.83276201 39.85521919 -78.25 37.3125 C-77.75113281 36.80589844 -77.25226563 36.29929688 -76.73828125 35.77734375 C-73.00341139 32.0625 -73.00341139 32.0625 -70.75 32.0625 C-70.75 31.4025 -70.75 30.7425 -70.75 30.0625 C-68.67924872 28.40892197 -66.61245236 26.88080099 -64.4375 25.375 C-63.80392578 24.93164307 -63.17035156 24.48828613 -62.51757812 24.03149414 C-60.60158301 22.69872216 -58.67726778 21.37890396 -56.75 20.0625 C-55.70457031 19.34320313 -54.65914062 18.62390625 -53.58203125 17.8828125 C-48.8559764 14.74080086 -45.47231211 12.73620244 -39.75 12.0625 C-39.75 11.4025 -39.75 10.7425 -39.75 10.0625 C-39.10933594 9.88074219 -38.46867187 9.69898437 -37.80859375 9.51171875 C-33.7895326 8.34373526 -29.86526056 7.19996665 -26.0625 5.4375 C-22.5831138 3.99322648 -19.48431096 3.44355214 -15.75 3.0625 C-15.75 2.4025 -15.75 1.7425 -15.75 1.0625 C-14.6775 1.083125 -13.605 1.10375 -12.5 1.125 C-9.02180763 1.21313796 -9.02180763 1.21313796 -6.8125 0.5625 C-4.47390203 -0.00443284 -2.40273419 -0.03533433 0 0 Z " fill="#6B6B6B" transform="translate(232.75,112.9375)"/>
<path d="M0 0 C-3.23797626 13.22173641 -3.23797626 13.22173641 -9 18 C-9.598125 18.61875 -10.19625 19.2375 -10.8125 19.875 C-14.31291063 21.67521118 -17.18813543 20.69884184 -21 20 C-21 20.99 -21 21.98 -21 23 C-21.66 23 -22.32 23 -23 23 C-23.33 22.34 -23.66 21.68 -24 21 C-25.98 21 -27.96 21 -30 21 C-30 20.34 -30 19.68 -30 19 C-30.598125 18.7525 -31.19625 18.505 -31.8125 18.25 C-36.13044089 15.78260521 -38.09733674 11.47125867 -40 7 C-39.67 6.01 -39.34 5.02 -39 4 C-32.09401601 3.50671543 -27.71090655 6.47267536 -22 10 C-21.67 9.278125 -21.34 8.55625 -21 7.8125 C-15.53783842 0.13133527 -8.97497863 -0.74241551 0 0 Z " fill="#B1C85A" transform="translate(295,197)"/>
<path d="M0 0 C0.99 0.33 1.98 0.66 3 1 C2.67 3.97 2.34 6.94 2 10 C4.97 10 7.94 10 11 10 C11.33 10.99 11.66 11.98 12 13 C10.68 13 9.36 13 8 13 C8 13.78375 8 14.5675 8 15.375 C8 16.91666667 8 18.45833333 8 20 C12.00346023 20.44290923 12.00346023 20.44290923 14.25 18 C15.11625 17.01 15.11625 17.01 16 16 C16.12375 17.0209375 16.12375 17.0209375 16.25 18.0625 C16.94541422 20.78620571 17.70477801 22.24605891 19.1875 24.5625 C21 28 21 28 20.375 30.375 C19 32 19 32 17 33 C16.505 32.505 16.505 32.505 16 32 C15.67 34.31 15.34 36.62 15 39 C13.515 38.505 13.515 38.505 12 38 C11.01 38.495 11.01 38.495 10 39 C10 39.99 10 40.98 10 42 C10.66 42.33 11.32 42.66 12 43 C7.05 43.495 7.05 43.495 2 44 C2.33 43.01 2.66 42.02 3 41 C3.99 41.33 4.98 41.66 6 42 C6.12375 41.443125 6.2475 40.88625 6.375 40.3125 C8.13669065 33.7942446 8.13669065 33.7942446 10.5625 31.5625 C12.6576525 29.28516033 12.66634356 27.00290797 13 24 C12.360625 24.33 11.72125 24.66 11.0625 25 C9 26 9 26 8 26 C7.34 26.33 6.68 26.66 6 27 C6.33 28.65 6.66 30.3 7 32 C6.34 32 5.68 32 5 32 C4.67 32.66 4.34 33.32 4 34 C3.01 34 2.02 34 1 34 C1 35.65 1 37.3 1 39 C0.34 39 -0.32 39 -1 39 C-2.11058786 36.92690266 -2.97398494 35.11381589 -3.5 32.8125 C-3.665 32.214375 -3.83 31.61625 -4 31 C-4.66 30.67 -5.32 30.34 -6 30 C-5.67 28.35 -5.34 26.7 -5 25 C-4.34 25 -3.68 25 -3 25 C-3 23.02 -3 21.04 -3 19 C-1.125 18.375 -1.125 18.375 1 18 C1.66 18.66 2.32 19.32 3 20 C5.35953094 17.64046906 5.49141413 16.22104383 6 13 C4.35 13 2.7 13 1 13 C1 9.37 1 5.74 1 2 C0.34 1.67 -0.32 1.34 -1 1 C-0.67 0.67 -0.34 0.34 0 0 Z M3 11 C3 11.33 3 11.66 3 12 C5.64 12 8.28 12 11 12 C11 11.67 11 11.34 11 11 C8.36 11 5.72 11 3 11 Z M8 19 C10 20 10 20 10 20 Z " fill="#7B7B7C" transform="translate(266,220)"/>
<path d="M0 0 C2.31 0.66 4.62 1.32 7 2 C7 2.66 7 3.32 7 4 C7.87269531 4.27070313 8.74539062 4.54140625 9.64453125 4.8203125 C12.84934305 5.9470333 15.68567992 7.29423254 18.6875 8.875 C32.08499044 15.63113961 46.19325272 18.96318668 61 21 C62.16595703 21.26103516 62.16595703 21.26103516 63.35546875 21.52734375 C67.3191267 22.23576711 71.29510987 22.36908185 75.3125 22.5625 C76.56643555 22.62727539 76.56643555 22.62727539 77.84570312 22.69335938 C79.89696935 22.79885307 81.9484648 22.89987315 84 23 C84 23.99 84 24.98 84 26 C64.64629068 26.43524084 47.6701226 25.40363764 29.125 19.5 C28.36445313 19.2628125 27.60390625 19.025625 26.8203125 18.78125 C25 18 25 18 24 16 C22.783125 15.62875 21.56625 15.2575 20.3125 14.875 C13.32943242 12.71680274 7.23321964 8.7328385 1 5 C1 4.01 1 3.02 1 2 C0.34 1.67 -0.32 1.34 -1 1 C-0.67 0.67 -0.34 0.34 0 0 Z " fill="#676767" transform="translate(174,356)"/>
<path d="M0 0 C28.39829153 -0.41639724 28.39829153 -0.41639724 40 2 C41.08925781 2.21785156 42.17851562 2.43570313 43.30078125 2.66015625 C62.86788922 6.86788922 62.86788922 6.86788922 67 11 C67 11.99 67 12.98 67 14 C61.54834595 13.45904205 56.89003596 12.43792172 51.6875 10.625 C34.17046093 4.91641403 16.29807961 4.38777103 -2 4 C-2 3.34 -2 2.68 -2 2 C-1.34 2 -0.68 2 0 2 C0 1.34 0 0.68 0 0 Z " fill="#6C6C6C" transform="translate(237,112)"/>
<path d="M0 0 C4.91920833 -0.35137202 7.74501251 0.55564549 12 3 C13.3921875 3.7115625 13.3921875 3.7115625 14.8125 4.4375 C17 6 17 6 17.8125 8.1875 C17.874375 8.785625 17.93625 9.38375 18 10 C18.99 10 19.98 10 21 10 C21.33 11.65 21.66 13.3 22 15 C23.65 15 25.3 15 27 15 C26.67 15.66 26.34 16.32 26 17 C23.36 16.67 20.72 16.34 18 16 C18 16.99 18 17.98 18 19 C17.34 19 16.68 19 16 19 C15.67 18.34 15.34 17.68 15 17 C13.02 17 11.04 17 9 17 C9 16.34 9 15.68 9 15 C8.401875 14.7525 7.80375 14.505 7.1875 14.25 C2.86955911 11.78260521 0.90266326 7.47125867 -1 3 C-0.67 2.01 -0.34 1.02 0 0 Z " fill="#ADC850" transform="translate(256,201)"/>
<path d="M0 0 C0.99 0 1.98 0 3 0 C2.85669423 2.0001827 2.71021706 4.00013825 2.5625 6 C2.48128906 7.11375 2.40007812 8.2275 2.31640625 9.375 C2.10260002 11.82453311 1.81931113 14.26883743 1.47265625 16.703125 C0.78488303 22.04060549 0.85446498 27.37666915 0.875 32.75 C0.87113281 33.77738281 0.86726563 34.80476563 0.86328125 35.86328125 C0.86457031 36.85199219 0.86585937 37.84070313 0.8671875 38.859375 C0.86831543 39.75108398 0.86944336 40.64279297 0.87060547 41.56152344 C0.92031794 43.9645479 0.92031794 43.9645479 1.52392578 46.09472656 C2.30745193 49.23043841 1.69127385 51.88926767 1 55 C0.01 55.66 -0.98 56.32 -2 57 C-5.88159626 53.11840374 -4.97160374 38.90777677 -5.02441406 33.5 C-4.80177792 22.44997742 -4.44450778 10.2093505 0 0 Z " fill="#535353" transform="translate(118,215)"/>
<path d="M0 0 C0.33 0 0.66 0 1 0 C2.44127528 9.72860811 2.11765096 18.96255874 0.75 28.6875 C0.61940186 29.63705566 0.48880371 30.58661133 0.35424805 31.56494141 C-0.81186337 39.58221118 -2.62392665 47.25665435 -5 55 C-6.32 54.67 -7.64 54.34 -9 54 C-8.38356801 48.0075698 -7.55316694 42.11668046 -6.5 36.1875 C-5.2814531 29.14032271 -4.40639279 22.14690772 -4 15 C-3.67 15 -3.34 15 -3 15 C-3 18.3 -3 21.6 -3 25 C-2.01 25 -1.02 25 0 25 C0 16.75 0 8.5 0 0 Z " fill="#616161" transform="translate(386,234)"/>
<path d="M0 0 C4.73160859 3.96800605 9.27986733 8.0071169 13.44140625 12.5859375 C18.60555848 18.08607072 24.64619766 21.9832284 31 26 C30.67 26.66 30.34 27.32 30 28 C29.34 28 28.68 28 28 28 C27.67 28.66 27.34 29.32 27 30 C25.66144944 29.21718695 24.32926356 28.42348123 23 27.625 C22.2575 27.18414062 21.515 26.74328125 20.75 26.2890625 C20.1725 25.86367188 19.595 25.43828125 19 25 C19 24.34 19 23.68 19 23 C18.34 23 17.68 23 17 23 C17 22.34 17 21.68 17 21 C16.29230469 20.7834375 15.58460938 20.566875 14.85546875 20.34375 C11.31735679 18.67875614 8.96472971 16.29296026 6.3125 13.5 C5.58450195 12.75169922 5.58450195 12.75169922 4.84179688 11.98828125 C3.55532022 10.66454114 2.27718122 9.33271084 1 8 C0.34 7.34 -0.32 6.68 -1 6 C-1.69748583 4.68252676 -2.36959957 3.35085807 -3 2 C-2.01 2 -1.02 2 0 2 C0 1.34 0 0.68 0 0 Z " fill="#6A6A6A" transform="translate(147,330)"/>
<path d="M0 0 C0 1.32 0 2.64 0 4 C-2.3359375 5.921875 -2.3359375 5.921875 -5.375 7.75 C-6.87160156 8.67039063 -6.87160156 8.67039063 -8.3984375 9.609375 C-11 11 -11 11 -13 11 C-13 11.66 -13 12.32 -13 13 C-14.51227067 14.3302109 -16.08669024 15.59027591 -17.6875 16.8125 C-20.63660266 19.09191926 -23.39551916 21.27797262 -25.875 24.0625 C-26.57625 24.701875 -27.2775 25.34125 -28 26 C-30.3125 25.8125 -30.3125 25.8125 -32 25 C-30.60249952 21.84164893 -28.94801766 19.67727175 -26.5 17.25 C-25.8915625 16.63640625 -25.283125 16.0228125 -24.65625 15.390625 C-23 14 -23 14 -21 14 C-21 13.34 -21 12.68 -21 12 C-18.76127762 10.24924221 -16.52343246 8.61098791 -14.1875 7 C-13.54490234 6.54882812 -12.90230469 6.09765625 -12.24023438 5.6328125 C-4.19931121 0 -4.19931121 0 0 0 Z " fill="#5F5F5F" transform="translate(183,131)"/>
<path d="M0 0 C0 0.99 0 1.98 0 3 C0.66 3.33 1.32 3.66 2 4 C-0.54152435 4.47993156 -3.08321222 4.95896727 -5.625 5.4375 C-6.33785156 5.57220703 -7.05070312 5.70691406 -7.78515625 5.84570312 C-8.48769531 5.97783203 -9.19023437 6.10996094 -9.9140625 6.24609375 C-10.8723999 6.42676392 -10.8723999 6.42676392 -11.85009766 6.61108398 C-12.55956543 6.73942627 -13.2690332 6.86776855 -14 7 C-15.4240918 7.26780273 -15.4240918 7.26780273 -16.87695312 7.54101562 C-19.99011522 7.99854726 -22.91042717 8.11386378 -26.0546875 8.09765625 C-27.16328125 8.09443359 -28.271875 8.09121094 -29.4140625 8.08789062 C-30.55617187 8.07951172 -31.69828125 8.07113281 -32.875 8.0625 C-34.0403125 8.05798828 -35.205625 8.05347656 -36.40625 8.04882812 C-39.27088645 8.03708781 -42.13541633 8.0206657 -45 8 C-45 7.67 -45 7.34 -45 7 C-35.1 6.505 -35.1 6.505 -25 6 C-25 5.67 -25 5.34 -25 5 C-30.94 4.67 -36.88 4.34 -43 4 C-43 3.67 -43 3.34 -43 3 C-42.24904053 2.97494385 -41.49808105 2.9498877 -40.72436523 2.92407227 C-37.29526467 2.80745058 -33.86639447 2.68502583 -30.4375 2.5625 C-29.25607422 2.52318359 -28.07464844 2.48386719 -26.85742188 2.44335938 C-20.2271236 2.20191994 -13.87009006 1.82930501 -7.375 0.4375 C-4.86804081 -0.02430827 -2.54338772 -0.07266822 0 0 Z " fill="#989898" transform="translate(283,375)"/>
<path d="M0 0 C0.99 0.33 1.98 0.66 3 1 C4.12824155 9.53495014 4.11663729 18.03453548 4.0625 26.625 C4.05747197 28.02473797 4.05291138 29.4244777 4.04882812 30.82421875 C4.03713167 34.21619169 4.02074086 37.60807233 4 41 C3.01 41 2.02 41 1 41 C0.94465088 40.25427734 0.88930176 39.50855469 0.83227539 38.74023438 C0.577741 35.32666594 0.32014467 31.91333503 0.0625 28.5 C-0.02451172 27.32695312 -0.11152344 26.15390625 -0.20117188 24.9453125 C-0.75051685 17.65860107 -0.75051685 17.65860107 -1.625 10.40625 C-2.08957802 6.18633295 -1.3899882 3.92467258 0 0 Z " fill="#595959" transform="translate(382,218)"/>
<path d="M0 0 C17.34042553 8.38297872 17.34042553 8.38297872 25 14 C22 16 22 16 19.67578125 15.8359375 C16.4961757 14.84260088 14.01626652 13.38232022 11.1875 11.625 C6.53253262 8.82281321 2.15532865 6.68539591 -3 5 C-2.01 4.67 -1.02 4.34 0 4 C0 2.68 0 1.36 0 0 Z " fill="#646464" transform="translate(304,122)"/>
<path d="M0 0 C1.32 0.66 2.64 1.32 4 2 C3.59007812 2.54269531 3.18015625 3.08539063 2.7578125 3.64453125 C2.21898437 4.35996094 1.68015625 5.07539063 1.125 5.8125 C0.59132812 6.52019531 0.05765625 7.22789062 -0.4921875 7.95703125 C-1.70814781 9.60456297 -2.86416141 11.29624211 -4 13 C-4.66 13 -5.32 13 -6 13 C-6.2475 13.7425 -6.495 14.485 -6.75 15.25 C-8.12389704 18.27257349 -9.40563834 19.93977162 -12 22 C-13.32 22 -14.64 22 -16 22 C-14.61624869 18.16009012 -12.83690651 15.02947436 -10.5 11.6875 C-9.8915625 10.80449219 -9.283125 9.92148438 -8.65625 9.01171875 C-8.1096875 8.34785156 -7.563125 7.68398437 -7 7 C-6.34 7 -5.68 7 -5 7 C-5 6.34 -5 5.68 -5 5 C-4.34 5 -3.68 5 -3 5 C-2.690625 4.360625 -2.38125 3.72125 -2.0625 3.0625 C-1 1 -1 1 0 0 Z " fill="#6B6B6B" transform="translate(150,155)"/>
<path d="M0 0 C6.90471893 1.24891557 14.02378742 1.2599422 21.0234375 1.546875 C21.0234375 2.536875 21.0234375 3.526875 21.0234375 4.546875 C16.83599675 4.60527724 12.64866185 4.64060666 8.4609375 4.671875 C7.27951172 4.68863281 6.09808594 4.70539063 4.88085938 4.72265625 C-1.13053009 4.7563335 -6.31839372 4.65726394 -11.9765625 2.546875 C-11.6465625 1.556875 -11.3165625 0.566875 -10.9765625 -0.453125 C-6.91367537 -1.76373375 -4.04876328 -1.02255455 0 0 Z " fill="#484848" transform="translate(236.9765625,377.453125)"/>
<path d="M0 0 C1.32 0.99 2.64 1.98 4 3 C2.66727513 8.0268312 0.9769619 12.68545694 -1.125 17.4375 C-1.40214844 18.07365234 -1.67929687 18.70980469 -1.96484375 19.36523438 C-2.63931586 20.9118687 -3.31909495 22.45618697 -4 24 C-5.32 23.67 -6.64 23.34 -8 23 C-7.63029604 19.82054592 -7.27025124 17.44441314 -5.59375 14.6875 C-3.85255265 11.75136329 -2.84766822 8.93578647 -1.8125 5.6875 C-1.46832031 4.61886719 -1.12414062 3.55023438 -0.76953125 2.44921875 C-0.51558594 1.64097656 -0.26164062 0.83273437 0 0 Z " fill="#6D6D6D" transform="translate(376,286)"/>
<path d="M0 0 C-0.32441604 1.66842534 -0.65939189 3.33480481 -1 5 C-1.1546875 6.0209375 -1.1546875 6.0209375 -1.3125 7.0625 C-2.24684252 9.6956471 -4.04484788 11.04484788 -6 13 C-6 13.99 -6 14.98 -6 16 C-6.66 16 -7.32 16 -8 16 C-8.268125 16.639375 -8.53625 17.27875 -8.8125 17.9375 C-10 20 -10 20 -13 21 C-12.50143624 15.63190255 -11.17472558 11.8280922 -8.5625 7.125 C-7.94503906 5.99320313 -7.32757813 4.86140625 -6.69140625 3.6953125 C-4.5393992 0.2660172 -4.0200902 0 0 0 Z " fill="#636363" transform="translate(138,176)"/>
<path d="M0 0 C3.22914752 -0.02917228 6.45826083 -0.04685663 9.6875 -0.0625 C10.59951172 -0.07087891 11.51152344 -0.07925781 12.45117188 -0.08789062 C13.33740234 -0.09111328 14.22363281 -0.09433594 15.13671875 -0.09765625 C15.94842529 -0.10289307 16.76013184 -0.10812988 17.59643555 -0.11352539 C20.14864673 0.0070209 22.51026137 0.440051 25 1 C24.01 2.485 24.01 2.485 23 4 C20.47802734 4.34057617 20.47802734 4.34057617 17.3359375 4.29296875 C16.21445313 4.28330078 15.09296875 4.27363281 13.9375 4.26367188 C12.761875 4.23853516 11.58625 4.21339844 10.375 4.1875 C8.59996094 4.16719727 8.59996094 4.16719727 6.7890625 4.14648438 C3.85892461 4.11103916 0.92968541 4.06162769 -2 4 C-2 3.34 -2 2.68 -2 2 C-1.34 2 -0.68 2 0 2 C0 1.34 0 0.68 0 0 Z " fill="#4D4D4D" transform="translate(237,112)"/>
<path d="M0 0 C-0.99 1.32 -1.98 2.64 -3 4 C-1.68 4.33 -0.36 4.66 1 5 C-3.98319336 4.51145163 -8.84595865 3.70479832 -13.75 2.6875 C-14.83796875 2.46449219 -15.9259375 2.24148438 -17.046875 2.01171875 C-20.30206502 0.89651476 -21.79497659 -0.40428069 -24 -3 C-17.67334988 -6.16332506 -6.47879072 -1.59216032 0 0 Z " fill="#5E5E5E" transform="translate(228,376)"/>
<path d="M0 0 C3.62716299 0.02604785 5.54755703 0.61005703 8.1875 3.25 C7.5275 3.25 6.8675 3.25 6.1875 3.25 C5.8575 4.9 5.5275 6.55 5.1875 8.25 C3.8675 7.92 2.5475 7.59 1.1875 7.25 C1.1875 8.24 1.1875 9.23 1.1875 10.25 C-0.7925 10.25 -2.7725 10.25 -4.8125 10.25 C-4.83939216 8.77093108 -4.85884621 7.29172517 -4.875 5.8125 C-4.88660156 4.98878906 -4.89820313 4.16507813 -4.91015625 3.31640625 C-4.73602103 -0.36829509 -3.86512582 0.25345087 0 0 Z " fill="#5D5E5E" transform="translate(272.8125,219.75)"/>
<path d="M0 0 C0.33 0 0.66 0 1 0 C2.49800975 10.11156582 1.99578756 19.53180289 0.5 29.625 C0.35691406 30.62917969 0.21382813 31.63335937 0.06640625 32.66796875 C-0.28287565 35.11294208 -0.63842724 37.55681951 -1 40 C-1.33 40 -1.66 40 -2 40 C-2.33 37.36 -2.66 34.72 -3 32 C-3.66 32.99 -4.32 33.98 -5 35 C-6.25180279 30.78080897 -5.67252421 27.03911435 -5.0625 22.75 C-4.96259766 22.00492187 -4.86269531 21.25984375 -4.75976562 20.4921875 C-4.51319844 18.66054558 -4.25749609 16.83013749 -4 15 C-3.67 15 -3.34 15 -3 15 C-3 18.3 -3 21.6 -3 25 C-2.01 25 -1.02 25 0 25 C0 16.75 0 8.5 0 0 Z " fill="#9D9D9D" transform="translate(386,234)"/>
<path d="M0 0 C1.67293936 0.30027117 3.33985384 0.63557767 5 1 C5.99 0.67 6.98 0.34 8 0 C8.33 0.99 8.66 1.98 9 3 C8.34 3 7.68 3 7 3 C7.33 4.32 7.66 5.64 8 7 C7.401875 7.33 6.80375 7.66 6.1875 8 C3.10071812 10.82220057 2.23011277 14.07668579 1 18 C-2.875 17.125 -2.875 17.125 -4 16 C-4.04080783 14.00041636 -4.04254356 11.99954746 -4 10 C-1.36 8.68 1.28 7.36 4 6 C3.67 4.68 3.34 3.36 3 2 C1.35 2 -0.3 2 -2 2 C-1.34 1.34 -0.68 0.68 0 0 Z " fill="#595959" transform="translate(271,244)"/>
<path d="M0 0 C0.33 0.66 0.66 1.32 1 2 C2.32 1.67 3.64 1.34 5 1 C6.0067004 3.26807204 7.00551766 5.53907754 8 7.8125 C8.28617188 8.45509766 8.57234375 9.09769531 8.8671875 9.75976562 C10.13711041 12.67756469 11 14.78265714 11 18 C10.01 18.66 9.02 19.32 8 20 C7.03912864 18.10545176 6.08141031 16.20930419 5.125 14.3125 C4.59132813 13.25675781 4.05765625 12.20101563 3.5078125 11.11328125 C0 3.87046632 0 3.87046632 0 0 Z " fill="#6B6B6B" transform="translate(121,290)"/>
<path d="M0 0 C-0.99 0.495 -0.99 0.495 -2 1 C-2 1.66 -2 2.32 -2 3 C-0.68 3.33 0.64 3.66 2 4 C-5.05453001 5.20443195 -11.83437211 6.28100502 -19 6 C-19 4.68 -19 3.36 -19 2 C-12.53205867 0.48766299 -6.64409958 -0.21432579 0 0 Z " fill="#7A7A7A" transform="translate(237,113)"/>
<path d="M0 0 C-0.99 0.495 -0.99 0.495 -2 1 C-2.40798828 1.96679688 -2.40798828 1.96679688 -2.82421875 2.953125 C-4 5 -4 5 -6.20703125 6.046875 C-7.06683594 6.27890625 -7.92664063 6.5109375 -8.8125 6.75 C-10.09060547 7.11351562 -10.09060547 7.11351562 -11.39453125 7.484375 C-14.00209044 8.0004137 -16.34960919 8.09516664 -19 8 C-18.75 6.125 -18.75 6.125 -18 4 C-15.18648385 2.09082833 -12.30853611 1.59383981 -9 1 C-5.8035914 -0.06546953 -3.34252724 -0.07427838 0 0 Z " fill="#656565" transform="translate(302,370)"/>
<path d="M0 0 C0 2.97 0 5.94 0 9 C1.98 9.66 3.96 10.32 6 11 C6.36923077 15.55384615 6.36923077 15.55384615 4.5 17.8125 C4.005 18.204375 3.51 18.59625 3 19 C0.45585961 16.78770401 -0.54746847 15.34873329 -1 12 C-1.07182357 9.32713725 -1.04458486 6.67509154 -1 4 C-1.66 4 -2.32 4 -3 4 C-3.66 3.34 -4.32 2.68 -5 2 C-7.06874034 1.3574765 -7.06874034 1.3574765 -9 1 C-3.375 -1.125 -3.375 -1.125 0 0 Z " fill="#5E5F61" transform="translate(266,222)"/>
<path d="M0 0 C0.66 0.33 1.32 0.66 2 1 C1.67 1.66 1.34 2.32 1 3 C1.99 3.33 2.98 3.66 4 4 C1.71296692 5.19725883 -0.57884862 6.38297018 -2.875 7.5625 C-3.85146484 8.07586914 -3.85146484 8.07586914 -4.84765625 8.59960938 C-6.53529857 9.46082891 -8.26579593 10.23686703 -10 11 C-10.66 10.67 -11.32 10.34 -12 10 C-11.67 9.34 -11.34 8.68 -11 8 C-11.66 7.34 -12.32 6.68 -13 6 C-12.14535156 5.65066406 -11.29070312 5.30132812 -10.41015625 4.94140625 C-9.30542969 4.48636719 -8.20070313 4.03132813 -7.0625 3.5625 C-5.96035156 3.11003906 -4.85820312 2.65757812 -3.72265625 2.19140625 C-1.13431084 1.25575392 -1.13431084 1.25575392 0 0 Z " fill="#787878" transform="translate(311,363)"/>
<path d="M0 0 C0 0.66 0 1.32 0 2 C0.66 2 1.32 2 2 2 C2.33 4.97 2.66 7.94 3 11 C2.01 11 1.02 11 0 11 C0.33 9.02 0.66 7.04 1 5 C-0.97536745 5.34786708 -0.97536745 5.34786708 -3 6 C-3.33 6.66 -3.66 7.32 -4 8 C-4.66 7.67 -5.32 7.34 -6 7 C-6.33 7.66 -6.66 8.32 -7 9 C-8 4.25 -8 4.25 -8 2 C-7.34 2 -6.68 2 -6 2 C-6 1.34 -6 0.68 -6 0 C-2.25 -1.125 -2.25 -1.125 0 0 Z " fill="#5A5B5D" transform="translate(263,224)"/>
<path d="M0 0 C0 1.32 0 2.64 0 4 C-2.3359375 5.921875 -2.3359375 5.921875 -5.375 7.75 C-6.87160156 8.67039063 -6.87160156 8.67039063 -8.3984375 9.609375 C-11 11 -11 11 -13 11 C-13 8.875 -13 8.875 -12 6 C-8.19281232 2.27993332 -5.41836712 0 0 0 Z " fill="#707070" transform="translate(183,131)"/>
<path d="M0 0 C2.51699321 1.81586684 4.77115846 3.84369472 7 6 C6.67 6.99 6.34 7.98 6 9 C2.00118212 8.38479725 -0.80358226 6.39731331 -4 4 C-4 3.34 -4 2.68 -4 2 C-5.32 1.34 -6.64 0.68 -8 0 C-4.9403051 -1.52984745 -3.27514313 -0.9269273 0 0 Z " fill="#666666" transform="translate(332,138)"/>
<path d="M0 0 C0.33 0 0.66 0 1 0 C1.67258667 2.33163378 2.33847444 4.6652039 3 7 C3.226875 7.66 3.45375 8.32 3.6875 9 C4.18368449 12.17558073 3.69228863 14.88470119 3 18 C2.01 18.66 1.02 19.32 0 20 C-1.80259486 18.19740514 -1.13233831 15.76719425 -1.13671875 13.37109375 C-1.13285156 12.62988281 -1.12898438 11.88867188 -1.125 11.125 C-1.12886719 10.39152344 -1.13273437 9.65804688 -1.13671875 8.90234375 C-1.13084138 5.67566762 -1.0271886 3.08156579 0 0 Z " fill="#494949" transform="translate(116,252)"/>
<path d="M0 0 C3.94809812 4.54403746 4.0329389 9.15334508 4 15 C3.56606545 17.5254991 2.91025436 19.59050315 2 22 C1.67 22 1.34 22 1 22 C0.30238463 19.39816412 -0.38337774 16.79416398 -1.0625 14.1875 C-1.26166016 13.44951172 -1.46082031 12.71152344 -1.66601562 11.95117188 C-3.11328125 6.33984375 -3.11328125 6.33984375 -2 3 C-1.67 4.65 -1.34 6.3 -1 8 C-0.34 8 0.32 8 1 8 C0.67 5.36 0.34 2.72 0 0 Z " fill="#7A7A7A" transform="translate(379,203)"/>
<path d="M0 0 C0.66 0 1.32 0 2 0 C2 6.27 2 12.54 2 19 C1.01 19 0.02 19 -1 19 C-1.02683987 16.02077407 -1.04676037 13.04178705 -1.0625 10.0625 C-1.07087891 9.21236328 -1.07925781 8.36222656 -1.08789062 7.48632812 C-1.09111328 6.67744141 -1.09433594 5.86855469 -1.09765625 5.03515625 C-1.10289307 4.2862915 -1.10812988 3.53742676 -1.11352539 2.76586914 C-1 1 -1 1 0 0 Z " fill="#3F3F3F" transform="translate(384,240)"/>
<path d="M0 0 C10.16236162 -0.39852399 10.16236162 -0.39852399 14 2 C14.8125 4.125 14.8125 4.125 15 6 C9.33895411 5.50341703 5.12325529 4.45489316 0 2 C0 1.34 0 0.68 0 0 Z " fill="#666666" transform="translate(289,120)"/>
<path d="M0 0 C1.32 0.33 2.64 0.66 4 1 C3.01 1 2.02 1 1 1 C1.7763932 4.0745356 1.7763932 4.0745356 4 6 C2.23225581 6.53122363 0.46065917 7.04964073 -1.3125 7.5625 C-2.29863281 7.85253906 -3.28476563 8.14257812 -4.30078125 8.44140625 C-7 9 -7 9 -10 8 C-9.67 6.68 -9.34 5.36 -9 4 C-6.03 3.34 -3.06 2.68 0 2 C0 1.34 0 0.68 0 0 Z " fill="#747474" transform="translate(217,114)"/>
<path d="M0 0 C2.13093906 1.06546953 3.36587557 2.29159719 5 4 C3.37750059 4.83819158 1.75191503 5.6704116 0.125 6.5 C-0.77992188 6.9640625 -1.68484375 7.428125 -2.6171875 7.90625 C-5 9 -5 9 -7 9 C-7 8.01 -7 7.02 -7 6 C-7.66 5.67 -8.32 5.34 -9 5 C-7.54735962 4.1361871 -6.0876837 3.28419546 -4.625 2.4375 C-3.40683594 1.72400391 -3.40683594 1.72400391 -2.1640625 0.99609375 C-1.44992188 0.66738281 -0.73578125 0.33867188 0 0 Z " fill="#6E6E6E" transform="translate(190,125)"/>
<path d="M0 0 C0.99 0.33 1.98 0.66 3 1 C3 4 3 4 1.6875 5.5 C1.130625 5.995 0.57375 6.49 0 7 C-0.7115625 7.804375 -0.7115625 7.804375 -1.4375 8.625 C-3.25364215 10.22320509 -4.64195518 10.59344055 -7 11 C-7 7 -7 7 -5 4 C-4.34 4 -3.68 4 -3 4 C-3 3.34 -3 2.68 -3 2 C-2.01 2 -1.02 2 0 2 C0 1.34 0 0.68 0 0 Z " fill="#5B5B5B" transform="translate(355,328)"/>
<path d="M0 0 C1 2 1 2 1 4.3125 C-0.46444773 8.24820326 -3.37359165 10.0318569 -7 12 C-7.66 12 -8.32 12 -9 12 C-9 9.375 -9 9.375 -8 6 C-5.53417612 3.68535771 -2.84145506 1.8252627 0 0 Z " fill="#5E5E5E" transform="translate(170,137)"/>
<path d="M0 0 C0.33 0.66 0.66 1.32 1 2 C1.66 2 2.32 2 3 2 C2.34 4.31 1.68 6.62 1 9 C-1.62113708 9 -3.50935112 8.68707555 -6 8 C-5.34 6.02 -4.68 4.04 -4 2 C-2.68 2 -1.36 2 0 2 C0 1.34 0 0.68 0 0 Z M-4 9 C-3.01 9.495 -3.01 9.495 -2 10 C-2.99 10.495 -2.99 10.495 -4 11 C-4 10.34 -4 9.68 -4 9 Z " fill="#5D5E60" transform="translate(278,231)"/>
<path d="M0 0 C-0.1875 2.3125 -0.1875 2.3125 -1 5 C-4.33246046 7.68448204 -6.76204266 8.36325349 -11 8 C-10.9375 6.25 -10.9375 6.25 -10 4 C-6.7838181 1.55272534 -4.07605096 0 0 0 Z " fill="#585858" transform="translate(323,358)"/>
<path d="M0 0 C0.99 0.33 1.98 0.66 3 1 C2.56179109 5.55737263 2.14958831 8.57653445 -1 12 C-1.99 11.67 -2.98 11.34 -4 11 C-3.48964169 6.6109185 -2.47785723 3.66291938 0 0 Z " fill="#616161" transform="translate(372,298)"/>
<path d="M0 0 C2.06242617 -0.02717692 4.12495703 -0.0464758 6.1875 -0.0625 C7.33605469 -0.07410156 8.48460937 -0.08570312 9.66796875 -0.09765625 C12.59300586 -0.01192832 15.16316291 0.32150977 18 1 C17.67 1.66 17.34 2.32 17 3 C11.39 3 5.78 3 0 3 C0 2.01 0 1.02 0 0 Z " fill="#303030" transform="translate(244,112)"/>
<path d="M0 0 C0.33 0 0.66 0 1 0 C1.1953125 2.01822917 1.390625 4.03645833 1.5859375 6.0546875 C1.86374749 8.22668245 1.86374749 8.22668245 4 10 C4.26991906 12.68839385 4.08737357 15.29141936 4 18 C3.34 17.01 2.68 16.02 2 15 C1.67 16.98 1.34 18.96 1 21 C0.67 21 0.34 21 0 21 C-0.19461488 18.06281233 -0.38097593 15.12550068 -0.5625 12.1875 C-0.61857422 11.35412109 -0.67464844 10.52074219 -0.73242188 9.66210938 C-0.78076172 8.85966797 -0.82910156 8.05722656 -0.87890625 7.23046875 C-0.9260376 6.49207764 -0.97316895 5.75368652 -1.02172852 4.99291992 C-1 3 -1 3 0 0 Z " fill="#6C6C6C" transform="translate(114,240)"/>
<path d="M0 0 C2.24027294 2.88035092 4.16172132 5.84866512 6 9 C4.35 10.32 2.7 11.64 1 13 C0.30034557 11.73581754 -0.38434763 10.46334598 -1.0625 9.1875 C-1.44535156 8.47980469 -1.82820313 7.77210938 -2.22265625 7.04296875 C-3 5 -3 5 -2 2 C-1.34 2.33 -0.68 2.66 0 3 C0 2.01 0 1.02 0 0 Z " fill="#818181" transform="translate(368,179)"/>
<path d="M0 0 C5.28 0 10.56 0 16 0 C16 0.99 16 1.98 16 3 C11.05 3 6.1 3 1 3 C0.67 2.01 0.34 1.02 0 0 Z " fill="#3E3E3E" transform="translate(242,379)"/>
<path d="M0 0 C4.0042343 3.49087093 5.62671065 5.64951939 6 11 C4.68 11 3.36 11 2 11 C-1.07692308 5.70769231 -1.07692308 5.70769231 -0.6875 2.125 C-0.460625 1.42375 -0.23375 0.7225 0 0 Z " fill="#575757" transform="translate(131,307)"/>
<path d="M0 0 C1.67293936 0.30027117 3.33985384 0.63557767 5 1 C5.99 0.67 6.98 0.34 8 0 C8.33 0.99 8.66 1.98 9 3 C8.34 3 7.68 3 7 3 C7.33 4.32 7.66 5.64 8 7 C5.525 8.485 5.525 8.485 3 10 C3 7.33333333 3 4.66666667 3 2 C1.35 2 -0.3 2 -2 2 C-1.34 1.34 -0.68 0.68 0 0 Z " fill="#6C6C6C" transform="translate(271,244)"/>
<path d="M0 0 C0.33 1.32 0.66 2.64 1 4 C3.31 4 5.62 4 8 4 C7.67 4.66 7.34 5.32 7 6 C4.36 5.67 1.72 5.34 -1 5 C-1 5.99 -1 6.98 -1 8 C-1.66 8 -2.32 8 -3 8 C-3.33 7.34 -3.66 6.68 -4 6 C-5.98 6 -7.96 6 -10 6 C-10 5.34 -10 4.68 -10 4 C-10.66 3.67 -11.32 3.34 -12 3 C-8.37 3 -4.74 3 -1 3 C-0.67 2.01 -0.34 1.02 0 0 Z " fill="#D9E2B1" transform="translate(275,212)"/>
<path d="M0 0 C1.32 0.66 2.64 1.32 4 2 C3.5206753 6.31392226 2.2542015 8.16569547 -1 11 C-1 10.01 -1 9.02 -1 8 C-1.99 8.33 -2.98 8.66 -4 9 C-2.94124926 5.59687262 -1.99097846 2.98646769 0 0 Z " fill="#7E7E7E" transform="translate(367,307)"/>
<path d="M0 0 C1.65 0.33 3.3 0.66 5 1 C5 2.32 5 3.64 5 5 C5.99 5 6.98 5 8 5 C8.33 6.65 8.66 8.3 9 10 C5.21293268 10 1.73486879 9.5745952 -2 9 C0 7 0 7 2 6 C2.33 5.67 2.66 5.34 3 5 C2.2575 4.319375 2.2575 4.319375 1.5 3.625 C0 2 0 2 0 0 Z " fill="#B9CE72" transform="translate(269,206)"/>
<path d="M0 0 C0.33 0.66 0.66 1.32 1 2 C2.32 1.67 3.64 1.34 5 1 C7.21538462 7.27692308 7.21538462 7.27692308 6.125 10.9375 C5.568125 11.9584375 5.568125 11.9584375 5 13 C2.2946129 8.94191935 0 4.95110601 0 0 Z " fill="#757575" transform="translate(121,290)"/>
<path d="M0 0 C3.96 1.98 7.92 3.96 12 6 C11.01 6.33 10.02 6.66 9 7 C8.01 6.34 7.02 5.68 6 5 C5.67 5.99 5.34 6.98 5 8 C2.36 7.01 -0.28 6.02 -3 5 C-2.01 4.67 -1.02 4.34 0 4 C0 2.68 0 1.36 0 0 Z " fill="#757575" transform="translate(304,122)"/>
<path d="M0 0 C0.99 0 1.98 0 3 0 C2.67 4.29 2.34 8.58 2 13 C0.68 13 -0.64 13 -2 13 C-2.16682272 8.07872966 -2.24828052 4.49656104 0 0 Z " fill="#464646" transform="translate(118,215)"/>
<path d="M0 0 C1.41623216 -0.05447047 2.83308191 -0.09300508 4.25 -0.125 C5.03890625 -0.14820312 5.8278125 -0.17140625 6.640625 -0.1953125 C9.20731941 0.0171622 10.7916067 0.71345895 13 2 C8.50343896 4.24828052 4.92127034 4.16682272 0 4 C0 2.68 0 1.36 0 0 Z " fill="#545454" transform="translate(218,115)"/>
<path d="M0 0 C3.3 0.33 6.6 0.66 10 1 C9.01 2.32 8.02 3.64 7 5 C8.32 5.33 9.64 5.66 11 6 C6.30976546 5.43393721 1.65499974 4.81462495 -3 4 C-1.68 3.34 -0.36 2.68 1 2 C0.67 1.34 0.34 0.68 0 0 Z " fill="#848484" transform="translate(218,375)"/>
<path d="M0 0 C1.32 0 2.64 0 4 0 C4.66 1.32 5.32 2.64 6 4 C3.02588876 5.23921302 0.14737182 6.30058404 -3 7 C-3.33 6.34 -3.66 5.68 -4 5 C-3.34 4.01 -2.68 3.02 -2 2 C-1.34 2 -0.68 2 0 2 C0 1.34 0 0.68 0 0 Z " fill="#636365" transform="translate(248,274)"/>
<path d="M0 0 C2.31 0.66 4.62 1.32 7 2 C7 2.66 7 3.32 7 4 C7.66 4 8.32 4 9 4 C9 5.32 9 6.64 9 8 C6.07120629 7.37240135 3.63904371 6.41377341 1 5 C1 4.01 1 3.02 1 2 C0.34 1.67 -0.32 1.34 -1 1 C-0.67 0.67 -0.34 0.34 0 0 Z " fill="#484848" transform="translate(174,356)"/>
<path d="M0 0 C0.99 0.33 1.98 0.66 3 1 C3 3.31 3 5.62 3 8 C2.01 8.495 2.01 8.495 1 9 C0.34444881 11.52733235 0.34444881 11.52733235 0 14 C-0.33 14 -0.66 14 -1 14 C-1.02685938 11.85423363 -1.04633088 9.70837355 -1.0625 7.5625 C-1.07410156 6.36753906 -1.08570313 5.17257813 -1.09765625 3.94140625 C-1 1 -1 1 0 0 Z " fill="#686868" transform="translate(383,232)"/>
<path d="M0 0 C0.66 0.33 1.32 0.66 2 1 C2.99 0.67 3.98 0.34 5 0 C4.67 1.98 4.34 3.96 4 6 C3.34 6 2.68 6 2 6 C1.67 6.66 1.34 7.32 1 8 C-1.0625 8.625 -1.0625 8.625 -3 9 C-2.30058404 5.85262818 -1.23921302 2.97411124 0 0 Z " fill="#757575" transform="translate(124,195)"/>
<path d="M0 0 C0.763125 0.20625 1.52625 0.4125 2.3125 0.625 C2.3125 1.615 2.3125 2.605 2.3125 3.625 C-0.82248292 5.48276765 -3.06221432 5.82640476 -6.6875 5.625 C-6.375 3.75 -6.375 3.75 -5.6875 1.625 C-2.6875 -0.375 -2.6875 -0.375 0 0 Z " fill="#4A4A4A" transform="translate(289.6875,372.375)"/>
<path d="M0 0 C3.73487777 0.4979837 5.81237635 0.87491756 9 3 C7 5 7 5 4 6 C1.3125 5.5625 1.3125 5.5625 -1 5 C-0.67 3.35 -0.34 1.7 0 0 Z " fill="#797979" transform="translate(199,369)"/>
<path d="M0 0 C2.375 -0.1875 2.375 -0.1875 5 0 C5.66 0.99 6.32 1.98 7 3 C6.125 5.6875 6.125 5.6875 5 8 C4.01 7.67 3.02 7.34 2 7 C0.8125 3.4375 0.8125 3.4375 0 0 Z " fill="#ABC254" transform="translate(257,202)"/>
<path d="M0 0 C3.16115776 1.36983503 3.9927092 1.9890638 6 5 C5.34 5 4.68 5 4 5 C3.67 5.99 3.34 6.98 3 8 C2.34 7.67 1.68 7.34 1 7 C1 6.34 1 5.68 1 5 C-0.32 4.34 -1.64 3.68 -3 3 C-2.01 2.01 -1.02 1.02 0 0 Z " fill="#757575" transform="translate(339,145)"/>
<path d="M0 0 C0.99 0.33 1.98 0.66 3 1 C3.33 3.64 3.66 6.28 4 9 C3.01 9 2.02 9 1 9 C-1.14809171 5.77786243 -1.29386153 4.72224599 -1 1 C-0.67 0.67 -0.34 0.34 0 0 Z " fill="#545454" transform="translate(121,283)"/>
<path d="M0 0 C0.66 0.33 1.32 0.66 2 1 C2.76681614 10.73004484 2.76681614 10.73004484 0.88671875 13.84375 C-0.5 15.1875 -0.5 15.1875 -3 17 C-2.125 13.125 -2.125 13.125 -1 12 C-0.76572222 9.98405418 -0.58663876 7.961526 -0.4375 5.9375 C-0.31181641 4.28041016 -0.31181641 4.28041016 -0.18359375 2.58984375 C-0.12300781 1.73519531 -0.06242188 0.88054687 0 0 Z " fill="#7088A8" transform="translate(185,231)"/>
<path d="M0 0 C1.8125 0.1875 1.8125 0.1875 4 1 C5.8125 3.4375 5.8125 3.4375 7 6 C6.67 6.66 6.34 7.32 6 8 C3.53199953 6.84826645 1.95216435 5.95216435 0 4 C0 2.68 0 1.36 0 0 Z " fill="#565656" transform="translate(343,150)"/>
<path d="M0 0 C5.94 1.485 5.94 1.485 12 3 C10.02 3.99 10.02 3.99 8 5 C7.01 4.67 6.02 4.34 5 4 C5 4.66 5 5.32 5 6 C3.35 5.67 1.7 5.34 0 5 C0 3.35 0 1.7 0 0 Z " fill="#737373" transform="translate(284,116)"/>
<path d="M0 0 C2.97 1.65 5.94 3.3 9 5 C8.67 5.66 8.34 6.32 8 7 C7.34 7 6.68 7 6 7 C5.67 7.66 5.34 8.32 5 9 C2.5 7.1875 2.5 7.1875 0 5 C0 3.33333333 0 1.66666667 0 0 Z " fill="#888888" transform="translate(169,351)"/>
<path d="M0 0 C0 2.97 0 5.94 0 9 C0.66 9.33 1.32 9.66 2 10 C1.34 10 0.68 10 0 10 C-0.33 10.66 -0.66 11.32 -1 12 C-1 9.36 -1 6.72 -1 4 C-1.66 4 -2.32 4 -3 4 C-3.66 3.34 -4.32 2.68 -5 2 C-7.06874034 1.3574765 -7.06874034 1.3574765 -9 1 C-3.375 -1.125 -3.375 -1.125 0 0 Z " fill="#848585" transform="translate(266,222)"/>
<path d="M0 0 C1.98 0 3.96 0 6 0 C6 0.33 6 0.66 6 1 C4.35 1 2.7 1 1 1 C1 1.66 1 2.32 1 3 C1.66 3.33 2.32 3.66 3 4 C3.144375 4.61875 3.28875 5.2375 3.4375 5.875 C4.09717457 8.36710392 5.08288629 9.3329446 7 11 C6.67 11.99 6.34 12.98 6 14 C3.04948346 10.54077371 0.74144483 7.2161296 -1 3 C-0.67 2.01 -0.34 1.02 0 0 Z " fill="#CCD89E" transform="translate(256,201)"/>
<path d="M0 0 C0 0.99 0 1.98 0 3 C0.66 3.33 1.32 3.66 2 4 C-0.64 4.33 -3.28 4.66 -6 5 C-6 4.34 -6 3.68 -6 3 C-7.32 2.34 -8.64 1.68 -10 1 C-6.59437148 0.22157062 -3.49234244 -0.09978121 0 0 Z " fill="#787878" transform="translate(283,375)"/>
<path d="M0 0 C0.33 0.99 0.66 1.98 1 3 C1.66 3.66 2.32 4.32 3 5 C1.25 7 1.25 7 -1 9 C-2.32 9 -3.64 9 -5 9 C-3.7508258 5.54074837 -2.32472205 2.85306797 0 0 Z " fill="#7B7B7B" transform="translate(139,168)"/>
<path d="M0 0 C0 1.32 0 2.64 0 4 C-2.31 4.33 -4.62 4.66 -7 5 C-7 2 -7 2 -6 0 C-2.49056604 -1.24528302 -2.49056604 -1.24528302 0 0 Z " fill="#4F4F4F" transform="translate(199,123)"/>
<path d="M0 0 C0.0270043 1.45823212 0.04639787 2.91660675 0.0625 4.375 C0.07410156 5.18710937 0.08570313 5.99921875 0.09765625 6.8359375 C0 9 0 9 -1 11 C-1.66 11 -2.32 11 -3 11 C-3.33 8.03 -3.66 5.06 -4 2 C-1 0 -1 0 0 0 Z " fill="#3E3E3E" transform="translate(384,265)"/>
<path d="M0 0 C6.75 0.75 6.75 0.75 9 3 C8 4 8 4 5.49609375 4.09765625 C3.98208984 4.08025391 3.98208984 4.08025391 2.4375 4.0625 C1.42558594 4.05347656 0.41367188 4.04445313 -0.62890625 4.03515625 C-1.41136719 4.02355469 -2.19382813 4.01195312 -3 4 C-1.68 3.34 -0.36 2.68 1 2 C0.67 1.34 0.34 0.68 0 0 Z " fill="#535353" transform="translate(235,378)"/>
<path d="M0 0 C0.33 0 0.66 0 1 0 C1 1.65 1 3.3 1 5 C2.98 5.495 2.98 5.495 5 6 C4.67 8.31 4.34 10.62 4 13 C3.34 11.68 2.68 10.36 2 9 C1.01 9.495 1.01 9.495 0 10 C0 6.7 0 3.4 0 0 Z " fill="#787878" transform="translate(115,223)"/>
<path d="M0 0 C1.98 0.495 1.98 0.495 4 1 C4.33 2.65 4.66 4.3 5 6 C3.68 6 2.36 6 1 6 C1 5.34 1 4.68 1 4 C0.34 4 -0.32 4 -1 4 C-0.67 2.68 -0.34 1.36 0 0 Z " fill="#585858" transform="translate(142,326)"/>
<path d="M0 0 C0.33 0 0.66 0 1 0 C1.33 3.3 1.66 6.6 2 10 C1.67 8.68 1.34 7.36 1 6 C0.34 6 -0.32 6 -1 6 C-1 8.31 -1 10.62 -1 13 C-1.33 13 -1.66 13 -2 13 C-3.34939759 5.76232202 -3.34939759 5.76232202 -1.625 2 C-1.08875 1.34 -0.5525 0.68 0 0 Z " fill="#7C7C7C" transform="translate(119,267)"/>
<path d="M0 0 C2.64 0.66 5.28 1.32 8 2 C8 2.99 8 3.98 8 5 C2.25 5.125 2.25 5.125 0 4 C0 2.68 0 1.36 0 0 Z " fill="#555555" transform="translate(310,127)"/>
<path d="M0 0 C2.64 0 5.28 0 8 0 C8.33 1.32 8.66 2.64 9 4 C7.35 4 5.7 4 4 4 C4 3.34 4 2.68 4 2 C2.68 2 1.36 2 0 2 C0 1.34 0 0.68 0 0 Z " fill="#464646" transform="translate(276,116)"/>
<path d="M0 0 C0.33 0.66 0.66 1.32 1 2 C1.99 2.33 2.98 2.66 4 3 C3.67 3.99 3.34 4.98 3 6 C0.69 6.33 -1.62 6.66 -4 7 C-3.34 5.35 -2.68 3.7 -2 2 C-1.34 2 -0.68 2 0 2 C0 1.34 0 0.68 0 0 Z " fill="#A8C050" transform="translate(269,208)"/>
<path d="M0 0 C3.63 0 7.26 0 11 0 C10.1469752 3.4120992 9.13357275 6.67485327 8 10 C6.89155081 6.67465243 7.15545644 4.37817425 8 1 C5.36 1 2.72 1 0 1 C0 0.67 0 0.34 0 0 Z " fill="#CAD79D" transform="translate(284,197)"/>
<path d="M0 0 C0.99 0 1.98 0 3 0 C2.67 2.64 2.34 5.28 2 8 C1.01 7.67 0.02 7.34 -1 7 C-1.8125 5.125 -1.8125 5.125 -2 3 C-1.34 2.01 -0.68 1.02 0 0 Z " fill="#5B5B5B" transform="translate(122,202)"/>
<path d="M0 0 C1.37245106 2.74490212 0.93580311 4.12060581 0 7 C-2.0625 8.3125 -2.0625 8.3125 -4 9 C-4.33 7.35 -4.66 5.7 -5 4 C-3.35 2.68 -1.7 1.36 0 0 Z " fill="#767676" transform="translate(170,137)"/>
<path d="M0 0 C1.23556641 0.01740234 1.23556641 0.01740234 2.49609375 0.03515625 C3.32238281 0.04417969 4.14867187 0.05320312 5 0.0625 C5.63808594 0.07410156 6.27617187 0.08570312 6.93359375 0.09765625 C6.93359375 0.42765625 6.93359375 0.75765625 6.93359375 1.09765625 C4.62359375 1.09765625 2.31359375 1.09765625 -0.06640625 1.09765625 C-0.06640625 1.75765625 -0.06640625 2.41765625 -0.06640625 3.09765625 C1.25359375 3.42765625 2.57359375 3.75765625 3.93359375 4.09765625 C1.30108987 5.41390819 0.13180319 4.84579283 -2.69140625 4.16015625 C-3.91730469 3.86818359 -3.91730469 3.86818359 -5.16796875 3.5703125 C-6.10769531 3.33634766 -6.10769531 3.33634766 -7.06640625 3.09765625 C-6.42703125 2.78828125 -5.78765625 2.47890625 -5.12890625 2.16015625 C-1.03016727 0.04868465 -1.03016727 0.04868465 0 0 Z " fill="#838383" transform="translate(276.06640625,114.90234375)"/>
<path d="M0 0 C5.75 1.75 5.75 1.75 8 4 C5.36 4.33 2.72 4.66 0 5 C-0.5625 3.0625 -0.5625 3.0625 -1 1 C-0.67 0.67 -0.34 0.34 0 0 Z " fill="#6B6B6B" transform="translate(183,361)"/>
<path d="M0 0 C2 2 2 2 2 5 C2.66 5.33 3.32 5.66 4 6 C0.7 6.33 -2.6 6.66 -6 7 C-5.67 6.01 -5.34 5.02 -5 4 C-4.01 4.33 -3.02 4.66 -2 5 C-1.855625 4.360625 -1.71125 3.72125 -1.5625 3.0625 C-1 1 -1 1 0 0 Z " fill="#999A9A" transform="translate(274,257)"/>
<path d="M0 0 C0.33 0 0.66 0 1 0 C1 2.97 1 5.94 1 9 C-0.98 9.99 -0.98 9.99 -3 11 C-3 10.34 -3 9.68 -3 9 C-4.65 9 -6.3 9 -8 9 C-8 8.67 -8 8.34 -8 8 C-5.69 7.34 -3.38 6.68 -1 6 C-0.67 4.02 -0.34 2.04 0 0 Z " fill="#8FA8CA" transform="translate(170,236)"/>
<path d="M0 0 C0.33 1.32 0.66 2.64 1 4 C-0.32 4 -1.64 4 -3 4 C-3 3.34 -3 2.68 -3 2 C-4.32 1.34 -5.64 0.68 -7 0 C-4.3333581 -1.33332095 -2.83319697 -0.67102033 0 0 Z " fill="#515151" transform="translate(331,138)"/>
<path d="M0 0 C0.66 0.33 1.32 0.66 2 1 C1.34 2.32 0.68 3.64 0 5 C-0.66 5 -1.32 5 -2 5 C-2 5.66 -2 6.32 -2 7 C-2.99 7.33 -3.98 7.66 -5 8 C-5 7.34 -5 6.68 -5 6 C-4.34 6 -3.68 6 -3 6 C-3.33 5.01 -3.66 4.02 -4 3 C-2.68 2.01 -1.36 1.02 0 0 Z " fill="#565656" transform="translate(336,348)"/>
<path d="M0 0 C0.66 0.33 1.32 0.66 2 1 C1.67 1.66 1.34 2.32 1 3 C1.99 3.33 2.98 3.66 4 4 C1.625 5.5625 1.625 5.5625 -1 7 C-1.66 6.67 -2.32 6.34 -3 6 C-1.125 1.125 -1.125 1.125 0 0 Z " fill="#898989" transform="translate(311,363)"/>
<path d="M0 0 C0.66 0.33 1.32 0.66 2 1 C1.67 2.32 1.34 3.64 1 5 C0.34 5 -0.32 5 -1 5 C-1.33 6.32 -1.66 7.64 -2 9 C-2.66 8.01 -3.32 7.02 -4 6 C-1.125 1.125 -1.125 1.125 0 0 Z " fill="#777777" transform="translate(332,349)"/>
<path d="M0 0 C2.2477975 2.05233685 3.0022242 3.00667261 4 6 C3.01 6.99 2.02 7.98 1 9 C-0.61949011 6.42786866 -1.04408751 5.32330841 -0.625 2.25 C-0.41875 1.5075 -0.2125 0.765 0 0 Z " fill="#757575" transform="translate(136,314)"/>
<path d="M0 0 C0.33 0 0.66 0 1 0 C1 1.65 1 3.3 1 5 C1.66 5 2.32 5 3 5 C3.33 4.34 3.66 3.68 4 3 C3.67 5.64 3.34 8.28 3 11 C2.67 9.68 2.34 8.36 2 7 C1.01 7.33 0.02 7.66 -1 8 C-0.67 5.36 -0.34 2.72 0 0 Z " fill="#878787" transform="translate(380,271)"/>
<path d="M0 0 C1.32 0.66 2.64 1.32 4 2 C3.01 2.495 3.01 2.495 2 3 C1.34786708 5.02463255 1.34786708 5.02463255 1 7 C-0.32 5.35 -1.64 3.7 -3 2 C-2.01 2 -1.02 2 0 2 C0 1.34 0 0.68 0 0 Z " fill="#808080" transform="translate(156,340)"/>
<path d="M0 0 C0.99 0.33 1.98 0.66 3 1 C3 1.99 3 2.98 3 4 C1 5.6875 1 5.6875 -1 7 C-1 6.01 -1 5.02 -1 4 C-1.66 4 -2.32 4 -3 4 C-3 3.34 -3 2.68 -3 2 C-2.01 2 -1.02 2 0 2 C0 1.34 0 0.68 0 0 Z " fill="#525252" transform="translate(355,328)"/>
<path d="M0 0 C0.66 0 1.32 0 2 0 C2.33 1.32 2.66 2.64 3 4 C3.66 4 4.32 4 5 4 C4.67 4.99 4.34 5.98 4 7 C1.9375 7.6875 1.9375 7.6875 0 8 C0.33 6.35 0.66 4.7 1 3 C0.34 2.67 -0.32 2.34 -1 2 C-0.67 1.34 -0.34 0.68 0 0 Z " fill="#585958" transform="translate(281,251)"/>
<path d="M0 0 C1.67293936 0.30027117 3.33985384 0.63557767 5 1 C5.99 0.67 6.98 0.34 8 0 C8.33 0.99 8.66 1.98 9 3 C8.34 3 7.68 3 7 3 C6.67 3.66 6.34 4.32 6 5 C6 4.34 6 3.68 6 3 C3.36 2.67 0.72 2.34 -2 2 C-1.34 1.34 -0.68 0.68 0 0 Z " fill="#5B5B5B" transform="translate(271,244)"/>
<path d="M0 0 C2.02045442 0.60183749 4.02111039 1.27306096 6 2 C6.33 2.66 6.66 3.32 7 4 C5.02 4.66 3.04 5.32 1 6 C0.67 4.02 0.34 2.04 0 0 Z " fill="#BACE79" transform="translate(262,202)"/>
<path d="M0 0 C1.32 0 2.64 0 4 0 C4.33 1.65 4.66 3.3 5 5 C4.01 5.33 3.02 5.66 2 6 C2 5.34 2 4.68 2 4 C1.34 4 0.68 4 0 4 C0 2.68 0 1.36 0 0 Z " fill="#545454" transform="translate(370,189)"/>
<path d="M0 0 C-0.33 1.65 -0.66 3.3 -1 5 C-2.32 5 -3.64 5 -5 5 C-5 3.68 -5 2.36 -5 1 C-3 0 -3 0 0 0 Z " fill="#585858" transform="translate(138,176)"/>
<path d="M0 0 C0.66 0 1.32 0 2 0 C4 3 4 3 4 6 C2.68 6.33 1.36 6.66 0 7 C0 4.69 0 2.38 0 0 Z " fill="#595959" transform="translate(361,170)"/>
<path d="M0 0 C1.32 0 2.64 0 4 0 C4 1.32 4 2.64 4 4 C3.01 4.33 2.02 4.66 1 5 C0.01 4.34 -0.98 3.68 -2 3 C-1.34 2.01 -0.68 1.02 0 0 Z " fill="#515151" transform="translate(179,131)"/>
<path d="M0 0 C6.0546875 -0.1953125 6.0546875 -0.1953125 8 0 C8.66 0.66 9.32 1.32 10 2 C8.02 2.99 8.02 2.99 6 4 C4 2.66666667 2 1.33333333 0 0 Z " fill="#525252" transform="translate(185,365)"/>
<path d="M0 0 C0.33 0.66 0.66 1.32 1 2 C1.66 2.33 2.32 2.66 3 3 C2.34 4.32 1.68 5.64 1 7 C0.67 6.34 0.34 5.68 0 5 C-0.66 5 -1.32 5 -2 5 C-2.33 3.68 -2.66 2.36 -3 1 C-2.01 0.67 -1.02 0.34 0 0 Z " fill="#575958" transform="translate(278,257)"/>
<path d="M0 0 C0.99 0 1.98 0 3 0 C3 1.65 3 3.3 3 5 C1.68 5.33 0.36 5.66 -1 6 C-1.042721 4.33388095 -1.04063832 2.66617115 -1 1 C-0.67 0.67 -0.34 0.34 0 0 Z " fill="#ADC355" transform="translate(275,205)"/>
<path d="M0 0 C0.99 0.33 1.98 0.66 3 1 C3 2.65 3 4.3 3 6 C0.08482708 4.92598892 -1.77810176 4.22189824 -4 2 C-2.68 2 -1.36 2 0 2 C0 1.34 0 0.68 0 0 Z " fill="#898989" transform="translate(318,130)"/>
<path d="M0 0 C-0.33 0.66 -0.66 1.32 -1 2 C-3.31 2 -5.62 2 -8 2 C-8 1.34 -8 0.68 -8 0 C-4.71023192 -1.09658936 -3.28696233 -0.79953138 0 0 Z " fill="#333333" transform="translate(278,378)"/>
<path d="M0 0 C0.66 0.33 1.32 0.66 2 1 C2.4140625 3.06640625 2.4140625 3.06640625 2.625 5.5625 C2.69976562 6.38878906 2.77453125 7.21507812 2.8515625 8.06640625 C2.92503906 9.02353516 2.92503906 9.02353516 3 10 C0.9375 7.8125 0.9375 7.8125 -1 5 C-0.75 2.1875 -0.75 2.1875 0 0 Z " fill="#4F759E" transform="translate(185,253)"/>
<path d="M0 0 C0.66 0 1.32 0 2 0 C1.67 1.65 1.34 3.3 1 5 C-0.65 5.33 -2.3 5.66 -4 6 C-2.84826645 3.53199953 -1.95216435 1.95216435 0 0 Z " fill="#CBD793" transform="translate(278,200)"/>
<path d="M0 0 C0.99 0.33 1.98 0.66 3 1 C2.34 1 1.68 1 1 1 C1 1.99 1 2.98 1 4 C1.66 4.33 2.32 4.66 3 5 C1.02 5.33 -0.96 5.66 -3 6 C-2.625 3.5625 -2.625 3.5625 -2 1 C-1.34 0.67 -0.68 0.34 0 0 Z " fill="#888888" transform="translate(210,117)"/>
<path d="M0 0 C-3.4352048 2.29013653 -4.985331 2.17842973 -9 2 C-9.33 1.34 -9.66 0.68 -10 0 C-6.30581799 -1.231394 -3.7943739 -0.64432764 0 0 Z " fill="#3A3A3A" transform="translate(231,116)"/>
<path d="M0 0 C0.66 0 1.32 0 2 0 C2.33 0.99 2.66 1.98 3 3 C2.34 3.66 1.68 4.32 1 5 C-1.125 4.625 -1.125 4.625 -3 4 C-1.625 2 -1.625 2 0 0 Z " fill="#4D4D4D" transform="translate(307,365)"/>
<path d="M0 0 C0.66 0 1.32 0 2 0 C2.6875 1.8125 2.6875 1.8125 3 4 C1.5625 5.75 1.5625 5.75 0 7 C-1.125 2.25 -1.125 2.25 0 0 Z " fill="#5B5B5B" transform="translate(127,298)"/>
<path d="M0 0 C0.66 0 1.32 0 2 0 C2.33 2.31 2.66 4.62 3 7 C2.01 6.67 1.02 6.34 0 6 C0 4.02 0 2.04 0 0 Z " fill="#454545" transform="translate(377,282)"/>
<path d="M0 0 C0.33 0 0.66 0 1 0 C1.125 2.875 1.125 2.875 1 6 C0.34 6.66 -0.32 7.32 -1 8 C-2 7 -2 7 -2.1875 4.5625 C-2 2 -2 2 0 0 Z " fill="#363636" transform="translate(117,231)"/>
<path d="M0 0 C0.99 0.99 1.98 1.98 3 3 C2 6 2 6 -0.0625 7.1875 C-0.701875 7.455625 -1.34125 7.72375 -2 8 C-1.33333333 5.33333333 -0.66666667 2.66666667 0 0 Z " fill="#B3B3B3" transform="translate(362,228)"/>
<path d="M0 0 C1.32 0 2.64 0 4 0 C4 0.99 4 1.98 4 3 C2.35 3.66 0.7 4.32 -1 5 C-0.67 3.35 -0.34 1.7 0 0 Z " fill="#515151" transform="translate(171,137)"/>
<path d="M0 0 C2.00720923 0.28674418 4.0085944 0.61866701 6 1 C6 1.99 6 2.98 6 4 C1.25 3.25 1.25 3.25 -1 1 C-0.67 0.67 -0.34 0.34 0 0 Z " fill="#444444" transform="translate(298,122)"/>
<path d="M0 0 C0.66 0 1.32 0 2 0 C2 0.66 2 1.32 2 2 C2.66 2 3.32 2 4 2 C4 3.32 4 4.64 4 6 C2.68 5.67 1.36 5.34 0 5 C0 3.35 0 1.7 0 0 Z " fill="#565656" transform="translate(179,358)"/>
<path d="M0 0 C0.66 1.65 1.32 3.3 2 5 C0.35 4.67 -1.3 4.34 -3 4 C-3.33 3.01 -3.66 2.02 -4 1 C-2 0 -2 0 0 0 Z " fill="#5F5F5F" transform="translate(169,351)"/>
<path d="M0 0 C0.33 1.32 0.66 2.64 1 4 C0.34 4 -0.32 4 -1 4 C-1 4.66 -1 5.32 -1 6 C-1.99 5.67 -2.98 5.34 -4 5 C-4.33 4.01 -4.66 3.02 -5 2 C-2 2 -2 2 0 3 C0 2.01 0 1.02 0 0 Z " fill="#7D7D7D" transform="translate(350,336)"/>
<path d="M0 0 C2.31 0.33 4.62 0.66 7 1 C4.64046906 3.35953094 3.22104383 3.49141413 0 4 C-0.33 3.34 -0.66 2.68 -1 2 C-0.67 1.34 -0.34 0.68 0 0 Z " fill="#959596" transform="translate(245,277)"/>
<path d="M0 0 C0.66 0 1.32 0 2 0 C2.33 2.31 2.66 4.62 3 7 C2.01 7 1.02 7 0 7 C0 4.69 0 2.38 0 0 Z " fill="#393939" transform="translate(118,273)"/>
<path d="M0 0 C0 0.99 0 1.98 0 3 C-1.32 3.33 -2.64 3.66 -4 4 C-4 3.34 -4 2.68 -4 2 C-4.66 1.34 -5.32 0.68 -6 0 C-3.50907189 -1.24546405 -2.58919267 -0.7767578 0 0 Z " fill="#597FA8" transform="translate(183,274)"/>
<path d="M0 0 C1.41377341 2.63904371 2.37240135 5.07120629 3 8 C0.525 7.01 0.525 7.01 -2 6 C-1.49396008 3.83125748 -1.00016187 2.00032373 0 0 Z " fill="#BABBBA" transform="translate(324,253)"/>
<path d="M0 0 C2.62187494 1.04874998 3.79371361 1.64931313 5.25 4.125 C5.4975 4.74375 5.745 5.3625 6 6 C4.02 5.34 2.04 4.68 0 4 C0 2.68 0 1.36 0 0 Z " fill="#637FA4" transform="translate(179,225)"/>
<path d="M0 0 C0.66 0.33 1.32 0.66 2 1 C2.625 3.0625 2.625 3.0625 3 5 C1.68 5.33 0.36 5.66 -1 6 C-1 5.01 -1 4.02 -1 3 C-1.66 2.67 -2.32 2.34 -3 2 C-2.01 1.34 -1.02 0.68 0 0 Z " fill="#8C8C8C" transform="translate(184,128)"/>
</svg>
